<?xml version="1.0" encoding="UTF-8" standalone="no"?>
<!-- Created with Inkscape (http://www.inkscape.org/) -->

<svg
   width="1300"
   height="120"
   version="1.1"
   viewBox="0 0 343.96 31.75"
   id="svg241667"
   sodipodi:docname="BUA_logo.svg"
   inkscape:version="1.1 (c68e22c387, 2021-05-23)"
   xmlns:inkscape="http://www.inkscape.org/namespaces/inkscape"
   xmlns:sodipodi="http://sodipodi.sourceforge.net/DTD/sodipodi-0.dtd"
   xmlns="http://www.w3.org/2000/svg"
   xmlns:svg="http://www.w3.org/2000/svg">
  <defs
     id="defs241671">
    <clipPath
       id="clip0">
      <rect
         x="122"
         y="861"
         width="303"
         height="1"
         id="rect241945" />
    </clipPath>
  </defs>
  <sodipodi:namedview
     id="namedview241669"
     pagecolor="#ffffff"
     bordercolor="#666666"
     borderopacity="1.0"
     inkscape:pageshadow="2"
     inkscape:pageopacity="0.0"
     inkscape:pagecheckerboard="0"
     showgrid="false"
     inkscape:zoom="3.1569598"
     inkscape:cx="294.11207"
     inkscape:cy="178.65289"
     inkscape:window-width="2880"
     inkscape:window-height="1514"
     inkscape:window-x="-11"
     inkscape:window-y="-11"
     inkscape:window-maximized="1"
     inkscape:current-layer="svg241667" />
  <path
     d="m 56.16569,3.4222018 -4.6989,0.55862 v 1.372 l 1.8795,0.33021 V 22.497032 l -1.7777,0.22892 v 1.5239 h 7.1882 v -1.5239 l -1.8542,-0.2036 V 3.9043518 l -0.68575,-0.48265 z m 196.95001,0 -4.6989,0.55862 v 1.372 l 1.8795,0.33021 V 22.497032 l -1.7777,0.22892 v 1.5239 h 7.1882 v -1.5239 l -1.8547,-0.2036 V 3.9043518 l -0.68575,-0.48265 z m 8.6362,0 -4.6989,0.55862 v 1.372 l 1.8795,0.33021 V 22.497032 l -1.7782,0.22892 v 1.5239 h 7.1882 v -1.5239 l -1.8542,-0.2036 V 3.9043518 l -0.68575,-0.48265 z m -197.97001,0.25424 c -0.67733,0 -1.2193,0.21126 -1.6257,0.63459 -0.4064,0.42333 -0.60978,0.95695 -0.60978,1.6004 0,0.5588 0.17822,1.0159 0.53382,1.3715 0.3556,0.3556 0.83786,0.5333 1.4475,0.5333 h 0.02532 c 0.72813,0 1.2958,-0.20286 1.7022,-0.60926 0.4064,-0.4064 0.60926,-0.94841 0.60926,-1.6257 0,-0.54187 -0.1777,-0.99057 -0.5333,-1.3462 -0.3556,-0.37254 -0.87193,-0.55863 -1.5493,-0.55863 z m 68.30001,0 c -0.67733,0 -1.2188,0.21126 -1.6252,0.63459 -0.4064,0.42333 -0.60978,0.95695 -0.60978,1.6004 0,0.5588 0.1777,1.0159 0.5333,1.3715 0.3556,0.3556 0.83837,0.5333 1.448,0.5333 h 0.0253 c 0.72814,0 1.2953,-0.20286 1.7017,-0.60926 0.4064,-0.4064 0.60978,-0.94841 0.60978,-1.6257 0,-0.54187 -0.1777,-0.99057 -0.5333,-1.3462 -0.3556,-0.37254 -0.87244,-0.55863 -1.5498,-0.55863 z m 62.433,0 c -0.67733,0 -1.2193,0.21126 -1.6257,0.63459 -0.4064,0.42333 -0.60978,0.95695 -0.60978,1.6004 0,0.5588 0.1777,1.0159 0.5333,1.3715 0.3556,0.3556 0.83837,0.5333 1.448,0.5333 h 0.0253 c 0.72813,0 1.2953,-0.20286 1.7017,-0.60926 0.4064,-0.4064 0.60978,-0.94841 0.60978,-1.6257 0,-0.54187 -0.1777,-0.99057 -0.5333,-1.3462 -0.3556,-0.37254 -0.87193,-0.55863 -1.5493,-0.55863 z m 74.853,0 c -0.67733,0 -1.2193,0.21126 -1.6257,0.63459 -0.4064,0.42333 -0.60925,0.95695 -0.60925,1.6004 0,0.5588 0.17769,1.0159 0.53329,1.3715 0.3556,0.3556 0.83836,0.5333 1.448,0.5333 h 0.0253 c 0.72813,0 1.2953,-0.20286 1.7017,-0.60926 0.4064,-0.4064 0.60978,-0.94841 0.60978,-1.6257 0,-0.54187 -0.17822,-0.99057 -0.53382,-1.3462 -0.3556,-0.37254 -0.87193,-0.55863 -1.5493,-0.55863 z m -253.59001,1.5239 c -0.4064,0 -0.76232,0.008 -1.0671,0.0253 -0.3048,0.0169 -0.566899,0.0337 -0.787029,0.0506 -0.9144,0.0677 -1.6598,0.1018 -2.2355,0.1018 H 7.903962 v 1.5746 l 1.9808,0.33021 V 22.471852 l -2.0066,0.25425 v 1.5239 h 3.835399 c 0.42333,0 0.83849,0.008 1.2449,0.0253 0.4064,0.0339 0.69418,0.0506 0.86351,0.0506 0.643469,0.0508 1.346399,0.0765 2.108399,0.0765 2.8956,0 4.9614,-0.53362 6.1976,-1.6004 1.2361,-1.0668 1.8542,-2.4805 1.8542,-4.2416 0,-1.3885 -0.48277,-2.4726 -1.448,-3.2515 -0.94827,-0.77894 -2.2603,-1.16 -3.9367,-1.1431 1.2192,-0.18626 2.201,-0.6942 2.9461,-1.5239 0.762,-0.84667 1.1431,-1.8966 1.1431,-3.1497002 0,-1.4224 -0.51633,-2.4891 -1.5493,-3.2003 -1.016,-0.72814 -2.8024,-1.0919 -5.3594,-1.0919 z m 221.00001,0.076 -5.842,17.1960002 -1.5239,0.25425 0.0253,1.5239 h 6.4771 v -1.5239 l -2.0572,-0.22893 0.99063,-3.3274 h 6.5784 l 0.99063,3.3021 -1.9048,0.25425 v 1.5239 h 7.4926 v -1.5239 l -1.4728,-0.25425 -5.8674,-17.1960002 z m -144.81001,0.1018 v 1.5746 l 1.6764,0.33021 v 9.1695002 c 0,2.7601 0.62692,4.7835 1.88,6.0704 1.2531,1.2869 3.1664,1.9306 5.7402,1.9306 2.16751,0 3.88631,-0.63531 5.15631,-1.9053 1.2869,-1.27 1.9301,-3.2258 1.9301,-5.8674 V 7.2828518 l 1.7275,-0.33021 v -1.5746 h -6.35 v 1.5746 l 2.1844,0.35553 v 9.5762002 c 0,1.8796 -0.33862,3.3442 -1.016,4.394 -0.67733,1.0329 -1.7189,1.5493 -3.12441,1.5493 -2.8617,0 -4.2928,-2.015 -4.2928,-6.0451 V 7.3081718 l 2.159,-0.35553 v -1.5746 z m 110.69001,1.016 c -0.4064,1.4055 -0.68579,2.2861 -0.83819,2.6417 -0.2032,0.54187 -0.44852,0.92244 -0.73639,1.1426002 -0.18627,0.0847 -0.45727,0.19474 -0.81287,0.33021 -0.3556,0.11854 -0.60092,0.20345 -0.73639,0.25425 v 1.3208 h 1.6505 v 9.3219 c 0,1.0668 0.25423,1.8457 0.76223,2.3368 0.508,0.4911 1.2953,0.73639 2.3621,0.73639 0.8636,0 1.7526,-0.14415 2.667,-0.43202 0.9144,-0.28786 1.609,-0.6092 2.0831,-0.9648 l -0.48266,-1.4226 c -0.3048,0.13547 -0.68588,0.25394 -1.1431,0.35554 -0.4572,0.0847 -0.89752,0.12712 -1.3208,0.12712 -0.42328,0 -0.7195,-0.0508 -0.88883,-0.15244 -0.16934,-0.11854 -0.27942,-0.37225 -0.33022,-0.76172 -0.0508,-0.38946 -0.0765,-1.0583 -0.0765,-2.0066 v -7.1376 h 3.8608 v -1.956 h -3.8861 l -0.1018,-3.7336002 z m -187.10001,0.35554 c 1.2192,0 2.0914,0.25371 2.6164,0.76171 0.52493,0.508 0.78755,1.321 0.78755,2.4386 0,1.1684002 -0.25423,2.0742002 -0.76223,2.7177002 -0.508,0.64347 -1.2786,0.96532 -2.3115,0.96532 h -1.1937 c -0.575729,0 -0.956819,-0.008 -1.143099,-0.0253 V 6.8515118 c 1.015999,-0.0677 1.684899,-0.1018 2.006599,-0.1018 z m 222.50001,0.83819 0.45733,1.9813 2.3874,7.8233002 h -5.5878 l 2.2603,-7.7980002 z m -205.54001,2.1844 c -1.3547,0 -2.5482,0.2961702 -3.5812,0.8888402 -1.0329,0.59266 -1.8376,1.4481 -2.4133,2.5657 -0.5588,1.1176 -0.83819,2.438 -0.83819,3.962 0,2.2691 0.54201,4.0644 1.6257,5.3852 1.1007,1.3039 2.7686,1.9554 5.0038,1.9554 1.0499,0 2.0825,-0.20286 3.0985,-0.60926 1.0329,-0.42334 1.7783,-0.88095 2.2355,-1.372 l -0.6351,-1.3968 c -0.4064,0.3048 -0.96518,0.56742 -1.6764,0.78755 -0.69427,0.22013 -1.3715,0.33021 -2.0319,0.33021 -1.2192,0 -2.1591,-0.42353 -2.8195,-1.2702 -0.6604,-0.8636 -1.0247,-2.0656 -1.0924,-3.6065 h 8.2553 c 0.13547,-0.54187 0.20309,-1.3717 0.20309,-2.4893 -0.03387,-1.6425 -0.50825,-2.9042 -1.4227,-3.7848 -0.9144,-0.89746 -2.2181,-1.3462002 -3.9114,-1.3462002 z m 16.739,0 c -0.77893,0 -1.507,0.19448 -2.1844,0.5839502 -0.6604,0.37253 -1.2108,0.81284 -1.6511,1.3208 -0.44027,0.49107 -0.71966,0.90622 -0.83819,1.2449 h -0.07596 l 0.07596,-2.0572 v -0.55914 L 43.9481,9.7976018 h -0.07596 l -3.9372,0.5333002 v 1.7529 l 1.6257,0.45734 v 10.007 l -1.6764,0.2036 v 1.4986 h 8.2042 v -1.4986 l -2.9466,-0.22893 v -8.3313 c 0.9144,-0.6604 1.99,-0.99012 3.2262,-0.99012 0.72813,0 1.3462,0.1777 1.8542,0.5333 V 9.9245918 c -0.27093,-0.1016 -0.59278,-0.15245 -0.96532,-0.15245 z m 109.45001,0 c -1.3547,0 -2.5488,0.2961702 -3.5817,0.8888402 -1.0329,0.59266 -1.837,1.4481 -2.4128,2.5657 -0.5588,1.1176 -0.83819,2.438 -0.83819,3.962 0,2.2691 0.54149,4.0644 1.6252,5.3852 1.1007,1.3039 2.7686,1.9554 5.0038,1.9554 1.0499,0 2.083,-0.20286 3.099,-0.60926 1.0329,-0.42334 1.7778,-0.88095 2.235,-1.372 l -0.6351,-1.3968 c -0.4064,0.3048 -0.96519,0.56742 -1.6764,0.78755 -0.69426,0.22013 -1.3715,0.33021 -2.0319,0.33021 -1.2192,0 -2.1591,-0.42353 -2.8195,-1.2702 -0.6604,-0.8636 -1.0242,-2.0656 -1.0919,-3.6065 h 8.2548 c 0.13547,-0.54187 0.20309,-1.3717 0.20309,-2.4893 -0.0339,-1.6425 -0.50773,-2.9042 -1.4221,-3.7848 -0.9144,-0.89746 -2.2181,-1.3462002 -3.9114,-1.3462002 z m 16.739,0 c -0.77893,0 -1.507,0.19448 -2.1844,0.5839502 -0.6604,0.37253 -1.2108,0.81284 -1.6511,1.3208 -0.44027,0.49107 -0.71966,0.90622 -0.8382,1.2449 h -0.0765 l 0.0765,-2.0572 v -0.55914 l -0.6351,-0.5079802 h -0.0765 l -3.9367,0.5333002 v 1.7529 l 1.6257,0.45734 v 10.007 l -1.6764,0.2036 v 1.4986 h 8.2042 v -1.4986 l -2.9466,-0.22893 v -8.3313 c 0.9144,-0.6604 1.9895,-0.99012 3.2256,-0.99012 0.72813,0 1.3462,0.1777 1.8542,0.5333 V 9.9245918 c -0.27094,-0.1016 -0.59227,-0.15245 -0.9648,-0.15245 z m 138,0 c -1.4563,0 -2.7348,0.3218502 -3.8354,0.9653202 -1.0837,0.62653 -1.9219,1.5072 -2.5146,2.6417 -0.57573,1.1345 -0.86352,2.4298 -0.86352,3.8861 0,2.1675 0.542,3.9198 1.6257,5.2576 1.1007,1.3377 2.7346,2.0066 4.902,2.0066 1.0499,0 2.0233,-0.20286 2.9207,-0.60926 0.9144,-0.40641 1.5916,-0.84672 2.0319,-1.3208 l -0.58393,-1.3208 c -1.0837,0.69426 -2.2689,1.0413 -3.5559,1.0413 -1.0668,0 -1.9222,-0.49116 -2.5657,-1.4733 -0.64347,-0.99907 -0.9648,-2.4296 -0.9648,-4.2922 0.0169,-1.7611 0.28741,-3.0568 0.81235,-3.8866 0.54186,-0.82973 1.2872,-1.2444 2.2355,-1.2444 0.89746,0 1.397,0.22016 1.4986,0.66043 l 0.63511,2.7941 h 2.2097 l 0.15245,-4.3434 -0.73689,-0.20361 c -0.6096,-0.16933 -1.16,-0.30457 -1.6511,-0.4061702 -0.49107,-0.1016 -1.075,-0.15245 -1.7523,-0.15245 z m 12.903,0 c -1.3547,0 -2.5483,0.2961702 -3.5812,0.8888402 -1.0329,0.59266 -1.8376,1.4481 -2.4133,2.5657 -0.5588,1.1176 -0.8382,2.438 -0.8382,3.962 0,2.2691 0.54202,4.0644 1.6258,5.3852 1.1007,1.3039 2.7686,1.9554 5.0038,1.9554 1.0499,0 2.0825,-0.20286 3.0985,-0.60926 1.0329,-0.42334 1.7783,-0.88095 2.2355,-1.372 l -0.63511,-1.3968 c -0.4064,0.3048 -0.96517,0.56742 -1.6764,0.78755 -0.69427,0.22013 -1.3715,0.33021 -2.0319,0.33021 -1.2192,0 -2.159,-0.42353 -2.8194,-1.2702 -0.6604,-0.8636 -1.0247,-2.0656 -1.0924,-3.6065 h 8.2553 c 0.13547,-0.54187 0.20309,-1.3717 0.20309,-2.4893 -0.0339,-1.6425 -0.50773,-2.9042 -1.4221,-3.7848 -0.9144,-0.89746 -2.2186,-1.3462002 -3.9119,-1.3462002 z m -261.34001,0.0253 -4.6483,0.5586302 v 1.7022 l 1.8035,0.48265 v 9.9565 l -1.7777,0.22893 v 1.5239 h 7.0864 v -1.5239 l -1.7017,-0.20361 v -12.217 L 65.05951,9.7978918 Z m 8.306,0 -4.2163,0.5333002 v 1.7529 l 1.6252,0.45733 v 9.9565 l -1.4733,0.22893 v 1.5239 h 6.6296 v -1.5239 l -1.5239,-0.22892 v -9.2454 c 1.1007,-0.82974 2.1338,-1.2449 3.099,-1.2449 0.57573,0 1.0155,0.11847 1.3203,0.35554 0.32173,0.22013 0.54189,0.58444 0.66042,1.0924 0.11853,0.49106 0.17777,1.1767 0.17777,2.0572 v 7.0104 l -1.3715,0.2036 v 1.5239 h 6.5531 v -1.5239 l -1.5493,-0.2036 v -7.0104 c 0,-1.3885 -0.12686,-2.4888 -0.38086,-3.3016 -0.254,-0.8128 -0.67754,-1.4057 -1.2702,-1.7782 -0.57573,-0.38947 -1.3798,-0.5844602 -2.4128,-0.5844602 -0.9652,0 -1.9218,0.2033802 -2.8701,0.6097802 -0.94827,0.4064 -1.7188,0.88918 -2.3115,1.448 l 0.02532,-0.60979 v -0.99063 l -0.6351,-0.5079802 z m 42.18901,0 -4.2163,0.5333002 v 1.7529 l 1.6257,0.45733 v 9.9565 l -1.4733,0.22893 v 1.5239 h 6.629 v -1.5239 l -1.5239,-0.22893 v -9.2454 c 1.1007,-0.82973 2.1338,-1.2449 3.099,-1.2449 0.57573,0 1.016,0.11846 1.3208,0.35553 0.32173,0.22013 0.54189,0.58444 0.66043,1.0924 0.11853,0.49107 0.17776,1.1767 0.17776,2.0572 v 7.0104 l -1.3715,0.20361 v 1.5239 h 6.5531 v -1.5239 l -1.5493,-0.20361 v -7.0104 c 0,-1.3885 -0.12737,-2.4888 -0.38137,-3.3016 -0.254,-0.8128 -0.67703,-1.4056 -1.2697,-1.7782 -0.57574,-0.38947 -1.3804,-0.5844602 -2.4133,-0.5844602 -0.9652,0 -1.9218,0.2033802 -2.8701,0.6097802 -0.9483,0.4064 -1.7188,0.88917 -2.3115,1.448 l 0.0253,-0.60978 v -0.99064 l -0.63458,-0.5079802 z m 17.806,0 -4.6483,0.5586302 v 1.7022 l 1.8035,0.48265 v 9.9565 l -1.7782,0.22893 v 1.5239 h 7.0864 v -1.5239 l -1.7017,-0.20361 v -12.217 l -0.71107,-0.5079802 z m 62.433,0 -4.6483,0.5586302 v 1.7022 l 1.8035,0.48265 v 9.9565 l -1.7782,0.22893 v 1.5239 h 7.0869 v -1.5239 l -1.7017,-0.20361 v -12.217 l -0.71158,-0.5079802 z m 74.854,0 -4.6483,0.5586302 v 1.7022 l 1.8035,0.48265 v 9.9565 l -1.7782,0.22893 v 1.5239 h 7.0864 v -1.5239 l -1.7017,-0.20361 v -12.217 l -0.71106,-0.5079802 z m 22.682,0 -4.2163,0.5333002 v 1.7529 l 1.6257,0.45733 v 9.9565 l -1.4733,0.22893 v 1.5239 h 6.6296 v -1.5239 l -1.5244,-0.22893 v -9.2454 c 1.1007,-0.82973 2.1338,-1.2449 3.099,-1.2449 0.57573,0 1.016,0.11846 1.3208,0.35553 0.32174,0.22013 0.5419,0.58444 0.66043,1.0924 0.11853,0.49107 0.17777,1.1767 0.17777,2.0572 v 7.0104 l -1.3715,0.20361 v 1.5239 h 6.5531 v -1.5239 l -1.5492,-0.20361 v -7.0104 c 0,-1.3885 -0.12738,-2.4888 -0.38138,-3.3016 -0.254,-0.8128 -0.67704,-1.4056 -1.2697,-1.7782 -0.57574,-0.38947 -1.3804,-0.5844602 -2.4133,-0.5844602 -0.9652,0 -1.9218,0.2033802 -2.8701,0.6097802 -0.9483,0.4064 -1.7188,0.88917 -2.3115,1.448 l 0.0258,-0.60978 v -0.99064 l -0.6351,-0.5079802 z m -109.58,0.0253 c -1.0837,0 -2.0404,0.16932 -2.8701,0.5079802 -0.82973,0.33867 -1.4734,0.81306 -1.9306,1.4227 -0.4572,0.59266 -0.68574,1.2699 -0.68574,2.0319 0,1.1007 0.28778,1.9981 0.86351,2.6924 0.57573,0.69426 1.448,1.2871 2.6164,1.7782 l 0.71106,0.30489 c 1.1684,0.508 1.9982,0.93941 2.4893,1.295 0.49107,0.33867 0.7369,0.78737 0.7369,1.3462 0,0.54187 -0.20338,0.98219 -0.60978,1.3208 -0.38947,0.32174 -0.98232,0.48266 -1.7782,0.48266 -0.49107,0 -0.98223,-0.0844 -1.4733,-0.25373 -0.47413,-0.18627 -0.77869,-0.38126 -0.91416,-0.58446 l -0.58446,-2.0066 h -2.1079 v 3.3528 l 0.55862,0.17777 c 0.89747,0.254 1.6848,0.45738 2.3621,0.60978 0.69426,0.1524 1.4732,0.22841 2.3368,0.22841 1.8457,0 3.26,-0.38947 4.2421,-1.1684 0.98213,-0.77893 1.4733,-1.7948 1.4733,-3.0479 0,-0.8128 -0.20339,-1.4984 -0.60979,-2.0572 -0.38946,-0.57573 -0.88901,-1.0417 -1.4986,-1.3973 -0.59267,-0.3556 -1.3464,-0.72778 -2.2608,-1.1172 -0.9144,-0.38946 -1.5408,-0.66885 -1.8795,-0.83819 -0.33866,-0.16933 -0.65161,-0.40678 -0.93948,-0.71158 -0.28786,-0.32173 -0.43201,-0.71959 -0.43201,-1.1937 0,-0.52493 0.20338,-0.93118 0.60978,-1.219 0.42334,-0.3048 0.98212,-0.45734 1.6764,-0.45734 0.4572,0 0.86345,0.0676 1.219,0.20309 0.3556,0.13546 0.58415,0.288 0.68575,0.45734 l 0.58446,1.9306 h 2.0066 v -3.3274 c -0.16933,-0.0169 -0.42356,-0.0846 -0.76222,-0.20309 -0.62654,-0.16933 -1.2278,-0.30509 -1.8035,-0.4066902 -0.5588,-0.1016 -1.236,-0.15245 -2.0319,-0.15245 z m 97.485,0 c -0.88053,0 -1.7355,0.11847 -2.5652,0.3555402 -0.82974,0.22013 -1.5494,0.48275 -2.159,0.78755 -0.59266,0.3048 -1.0162,0.56741 -1.2702,0.78754 l 0.78756,1.6258 c 0.7112,-0.33867 1.3968,-0.60968 2.0572,-0.81288 0.6604,-0.22013 1.4053,-0.33021 2.235,-0.33021 0.72813,0 1.2785,0.10169 1.6511,0.30489 0.38946,0.18627 0.65206,0.47405 0.78753,0.86352 0.1524,0.38946 0.22841,0.93095 0.22841,1.6252 v 0.58446 c -2.4553,0.0169 -4.4619,0.41479 -6.0198,1.1937 -1.5409,0.77893 -2.311,1.939 -2.311,3.4799 0,0.89747 0.19447,1.668 0.58394,2.3115 0.38947,0.62654 0.9058,1.1088 1.5493,1.4475 0.6604,0.32174 1.3801,0.48266 2.159,0.48266 0.9144,0 1.7358,-0.20287 2.4639,-0.60927 0.72813,-0.4064 1.321,-0.864 1.7782,-1.372 v 0.68626 c 0,0.52493 0.0928,0.87194 0.27906,1.0413 0.2032,0.16933 0.59266,0.25373 1.1684,0.25373 0.47413,0 1.0245,-0.0419 1.6511,-0.12661 0.62653,-0.0847 1.1093,-0.16958 1.448,-0.25425 v -1.4221 h -1.3715 v -7.7726 c 0,-1.2531 -0.16092,-2.2522 -0.48265,-2.9972 -0.32173,-0.74506 -0.85535,-1.2871 -1.6004,-1.6257 -0.72814,-0.3386602 -1.744,-0.5079802 -3.0479,-0.5079802 z m -144.88,0.3049002 v 1.4733 l 1.0413,0.33021 5.0545,12.522 h 2.9466 l 4.7243,-12.522 1.3208,-0.33021 v -1.4733 h -5.5883 v 1.4733 l 1.6004,0.33021 -2.2608,6.9851 -0.68575,2.6159 -0.81287,-2.6924 -2.311,-6.9086 1.6764,-0.33021 v -1.4733 z m 72.644,0 v 1.4733 l 1.1431,0.33021 4.7749,12.319 h 1.372 c -0.47413,1.3208 -0.99097,2.2602 -1.5498,2.819 -0.54187,0.5588 -1.2359,0.8387 -2.0826,0.8387 -0.28786,0 -0.60971,-0.0341 -0.96531,-0.1018 -0.3556,-0.0677 -0.59253,-0.13535 -0.71107,-0.20309 v 2.7177 c 0.1524,0.0677 0.39772,0.12696 0.73639,0.17776 0.3556,0.0508 0.68584,0.076 0.99064,0.076 0.9652,0 1.7866,-0.21964 2.4639,-0.65991 0.67733,-0.44026 1.2613,-1.084 1.7524,-1.9306 0.49106,-0.84666 1.0079,-1.981 1.5498,-3.4034 0.1524,-0.32174 0.6855,-1.8036 1.5999,-4.4452 0.9144,-2.6416 1.8375,-5.3847 2.7688,-8.2295 l 1.2444,-0.30489 v -1.4733 h -5.5118 v 1.4733 l 1.6004,0.30489 -2.0831,7.0357 -0.78703,2.9972 -0.91467,-2.9972 -2.2603,-7.0357 1.8542,-0.30489 v -1.4733 z m -176.86001,1.2702 c 1.5071,0 2.2608,1.126 2.2608,3.3781 0,0.254 -0.01677,0.61779 -0.05064,1.0919 h -4.9025 c 0.0508,-1.6595 0.30503,-2.819 0.76223,-3.4794 0.4572,-0.6604 1.1004,-0.99064 1.9301,-0.99064 z m 126.19001,0 c 1.5071,0 2.2603,1.126 2.2603,3.3781 0,0.254 -0.0168,0.61779 -0.0506,1.0919 h -4.902 c 0.0508,-1.6595 0.30451,-2.819 0.76171,-3.4794 0.4572,-0.6604 1.1009,-0.99064 1.9306,-0.99064 z m 167.64,0 c 1.5071,0 2.2603,1.126 2.2603,3.3781 0,0.254 -0.0168,0.61779 -0.0506,1.0919 h -4.9025 c 0.0508,-1.6595 0.30501,-2.819 0.76221,-3.4794 0.4572,-0.6604 1.1009,-0.99064 1.9306,-0.99064 z m -309.70001,3.9879 c 1.27,0 2.1931,0.27049 2.7688,0.81236 0.59267,0.52493 0.88883,1.4056 0.88883,2.6417 0,1.2869 -0.32185,2.2693 -0.96532,2.9466 -0.64347,0.67734 -1.6845,1.016 -3.1238,1.016 -1.1007,0 -1.846099,-0.076 -2.235499,-0.22841 v -7.1375 c 0.3556,-0.0339 1.244599,-0.0506 2.666999,-0.0506 z m 266.72001,1.7777 v 4.1656 c -0.33866,0.3048 -0.73652,0.56741 -1.1937,0.78755 -0.4572,0.2032 -0.86344,0.30489 -1.219,0.30489 -0.6604,0 -1.1851,-0.21177 -1.5746,-0.63511 -0.37253,-0.42333 -0.55914,-1.0414 -0.55914,-1.8542 0,-0.8128 0.37269,-1.4733 1.1178,-1.9813 0.762,-0.52493 1.9047,-0.78755 3.4287,-0.78755 z"
     fill="#fff"
     stroke-width="0.26458"
     style="white-space:pre;fill:#ffffff"
     id="path241665" />
  <rect
     style="fill:#ffffff;stroke:#ffffff;stroke-width:0.0738232;stroke-linejoin:round;stroke-miterlimit:4;stroke-dasharray:none;stroke-opacity:1"
     id="rect242970"
     width="1.2857969"
     height="29.566988"
     x="0.18789864"
     y="1.1562946" />
</svg>
